<svg viewBox="0 0 656.41 480.47" xmlns:xlink="http://www.w3.org/1999/xlink" xmlns="http://www.w3.org/2000/svg"><defs><style>.cls-1{fill:url(#linear-gradient);}.cls-2{fill:#fff;}.cls-3{fill:url(#linear-gradient-2);}.cls-4,.cls-5{fill:#01a0e7;}.cls-4,.cls-6{fill-rule:evenodd;}.cls-6,.cls-7{fill:#0b53b6;}</style><linearGradient gradientUnits="userSpaceOnUse" gradientTransform="translate(386.12 -208.92) rotate(79.48)" y2="255.5" x2="318.7" x1="318.7" id="linear-gradient"><stop stop-color="#22e1fd" offset="0"></stop><stop stop-color="#0b53b6" offset="0.97"></stop></linearGradient><linearGradient xlink:href="#linear-gradient" gradientTransform="matrix(1, 0, 0, 1, 0, 0)" y2="254.54" x2="309.73" y1="0.35" x1="308.51" id="linear-gradient-2"></linearGradient></defs><g data-name="图层 2" id="图层_2"><g data-name="图层 1" id="图层_1-2"><circle transform="translate(134.92 417.77) rotate(-79.48)" r="127.75" cy="127.75" cx="318.7" class="cls-1"></circle><path d="M436.81,127.75A118.11,118.11,0,1,1,318.7,9.64,118.11,118.11,0,0,1,436.81,127.75Z" class="cls-2"></path><path d="M208.66,177.9c25.34,7.38,94.68,23.35,138.46-7.56,28.4-20.05,24.74-52.17,24.74-52.17C371.39,93.75,356,69.48,356,69.48c60,52.32,24.55,110.44,24.55,110.44-18.27,35.94-57.87,57.55-89.45,65.12A120.66,120.66,0,0,1,208.66,177.9ZM224.93,51.41c7.43,39,24.11,71.83,35.21,83.78,14.34,15.44,35.45,31.84,62.56,25.06s32.62-36.41,32.62-36.41c6-25.21-2.54-55.15-3-55.78s-4.53-1.33-4.53-1.33c4.26,39.7-6.19,57.27-6.19,57.27-15.2,31.13-37.5,21.51-37.5,21.51-24.81-12.65-23.64-48.29-23.64-48.29-.76-24.78,9.06-65.75,27.93-89.6A120.23,120.23,0,0,0,224.93,51.41Zm140.36-34.6c-14.48,11.78-39.13,36.92-39.13,36.92-36.56,33.87-29.47,62.4-29.47,62.4,5.83,29.93,24,9.76,24,9.76C339.71,106.2,338.29,67,338.29,67a27.43,27.43,0,0,0-12.6,5.52c-.95,26.15-16.39,42.39-16.39,42.39-6,6.61-10.24.31-10.24.31-3.15-4.73,3.15-8,3.15-8,8.82-7.72,11.47-20.89,11.35-25.84s2.52-6.3,2.52-6.3A143,143,0,0,1,341,59.71c16.7-8.51,46.48-9.93,46.48-9.93a185.21,185.21,0,0,0,22-.67A120.67,120.67,0,0,0,365.29,16.81Z" class="cls-3"></path><path d="M244,444.41a3.86,3.86,0,0,0,4.15-4.06c0-1.39,0-10.48,0-11.88,0-4-4.12-3.64-4.12-3.64l-83.74-.13c-8.06,0-8.2-8.14-8.2-8.14-.1-.5,0-8.12,0-8.12h80c22.22,0,20.31-16,20.31-16V376.56s1.83-28.12-28.28-28.12H156.71c-30.64,0-28.56,27.76-28.56,27.76v40.19c0,28,28,27.9,28,27.9m67.95-55.82H152.07s0-10.35,0-11.93a8.52,8.52,0,0,1,8-8.07c3.89,0,56.11,0,60.13,0,3.62,0,7.83,4.07,7.81,8,0,3.12-.06,5-.06,8C228,384.47,228,388.47,224.14,388.47Z" class="cls-4"></path><path d="M116.19,312.48h-16a3.77,3.77,0,0,0-3.74,4.1c0,.33,0,31.9,0,31.9H44.24C6.6,348.46,0,381.06,0,396.53s6.87,47.84,44.94,47.8,39.2.09,55.31.09c20,0,20.16-19.88,20.16-19.88V316.48C120.41,312.48,116.19,312.48,116.19,312.48Zm-19.77,108a4.38,4.38,0,0,1-4.43,4c-4.36,0-25.67.11-38.76.07S24,421.6,24,396.82s18-28.36,29.14-28.36H96.4S96.42,417,96.42,420.51Z" class="cls-4"></path><rect rx="4" height="24" width="24" y="311.92" x="520.12" class="cls-5"></rect><path d="M544.41,440.44a4,4,0,0,1-4,4h-16a4,4,0,0,1-4-4v-88a4,4,0,0,1,4-4l16.08.3a3.52,3.52,0,0,1,3.63,3.79Z" class="cls-4"></path><path d="M616.41,348.46c-29.39,0-64,0-64,0v91.92a3.93,3.93,0,0,0,4.8,4l14,0c5.51.79,5.36-4,5.36-4l-.12-71.81,40,0c.67,0,16.16.3,16.16,20l.17,51.78a3.74,3.74,0,0,0,3.72,4h16a3.85,3.85,0,0,0,3.82-4s.17-47.33.17-53.56C656.41,364.45,645.79,348.5,616.41,348.46Z" class="cls-4"></path><path d="M96.4,420.68a4.28,4.28,0,0,1-4.41,3.8c-4.36,0-25.65,0-38.74,0s-29.14-2.92-29.14-27.7c0-25.71,19.61-28.33,28.94-28.33,0,0-64.34-1.32-46.68,53C11.61,436,26,444.46,44.9,444.44c23.2,0,20.57-.07,28.06-.05A23.7,23.7,0,0,0,96.4,420.68Z" class="cls-6"></path><path d="M396.4,480.47h15.93s4.09,0,4.09-4.07c0-.33,0-31.93,0-31.93,16.84,0,34.13-.15,51.66-.15,37.64,0,44.34-32.43,44.3-47.91s-6.77-47.87-44.83-47.83-39.09-.05-55.2-.05c-20,0-19.93,19.88-19.93,19.88V476.47C392.41,480.47,396.4,480.47,396.4,480.47Zm20-108.1a3.79,3.79,0,0,1,4-3.9c4.36,0,25.65-.05,38.73,0s29.13,2.92,29.14,27.7-17.89,28.46-29,28.46-42.83-.28-42.83-.28S416.38,375.92,416.38,372.37Z" class="cls-4"></path><path d="M244.24,424.41l-83.9-.06c-8.24,0-8.23-7.8-8.23-7.8s-1.86,27.86,22.4,27.86h69.67a3.92,3.92,0,0,0,4.23-4V428.48C248.41,424.6,244.24,424.41,244.24,424.41Z" class="cls-6"></path><path d="M376,444.41a3.86,3.86,0,0,0,4.15-4.06c0-1.39,0-10.48,0-11.88,0-4-4.21-3.71-4.21-3.71l-83.56-.06c-8.06,0-8.29-8.14-8.29-8.14-.1-.5,0-8.12,0-8.12h80c22.22,0,20.31-16,20.31-16V376.56s1.83-28.12-28.28-28.12H288.71c-30.64,0-28.56,27.76-28.56,27.76v40.19c0,28,28,27.9,28,27.9m67.95-55.82H284.07s0-10.35,0-11.93a8.52,8.52,0,0,1,8-8.07c3.89,0,56.11,0,60.13,0,3.62,0,7.83,4.07,7.81,8,0,3.12-.06,5-.06,8C360,384.47,360,388.47,356.14,388.47Z" class="cls-4"></path><path d="M376.24,424.41l-83.9-.06c-8.24,0-8.23-7.8-8.23-7.8s-1.86,27.86,22.4,27.86h69.67a3.92,3.92,0,0,0,4.23-4V428.48C380.41,424.6,376.24,424.41,376.24,424.41Z" class="cls-6"></path><path d="M540.36,348.44h-16s20,17.14,20,52.31V352.44A4,4,0,0,0,540.36,348.44Z" class="cls-6"></path><path d="M524.12,335.92h16a4,4,0,0,0,1.38-.28,24.13,24.13,0,0,1-21.38-19.22v15.5A4,4,0,0,0,524.12,335.92Z" class="cls-6"></path><path d="M618,368.44h0c4.12,1,14.32,3.71,14.32,19.84l.08,52.12a4,4,0,0,0,4,4h16a4,4,0,0,0,4-4V398C656.41,372,618,368.44,618,368.44Z" class="cls-7"></path><path d="M503.12,404.81c-4.09-22.17-24.56-31.6-24.56-31.6,5.51,3.86,9.41,10.73,9.42,22.94,0,24.79-17.83,28.26-29,28.26-1.31,0-2.92,0-4.72,0l-37.89-.1v20.13c17.1,0,52.87,0,53.69,0A48.38,48.38,0,0,0,486,441.32C504.05,429.8,504.81,414,503.12,404.81Z" class="cls-6"></path></g></g></svg>