<svg height="512" width="512" id="svg4" version="1.1" viewBox="0 0 512 512" role="img" class="svg-inline--fa fa-bars fa-w-14" data-icon="bars" data-prefix="fas" aria-hidden="true" xmlns="http://www.w3.org/2000/svg">
  <metadata id="metadata10">
    
      
        image/svg+xml
        
        
      
    
  </metadata>
  <defs id="defs8"></defs>
  
  <path style="stroke-width:0.683594" id="path" d="m 93.5,145.28572 h 325 c 6.9039,0 12.5,-6.39554 12.5,-14.28572 V 95.285714 C 431,87.395536 425.4039,81 418.5,81 H 93.5 C 86.596094,81 81,87.395536 81,95.285714 V 131 c 0,7.89018 5.596094,14.28572 12.5,14.28572 z m 0,142.85714 h 325 c 6.9039,0 12.5,-6.39554 12.5,-14.28572 v -35.71428 c 0,-7.89018 -5.5961,-14.28572 -12.5,-14.28572 h -325 c -6.903906,0 -12.5,6.39554 -12.5,14.28572 v 35.71428 c 0,7.89018 5.596094,14.28572 12.5,14.28572 z M 93.5,431 h 325 c 6.9039,0 12.5,-6.39554 12.5,-14.28571 V 381 c 0,-7.89018 -5.5961,-14.28572 -12.5,-14.28572 H 93.5 C 86.596094,366.71428 81,373.10982 81,381 v 35.71429 C 81,424.60446 86.596094,431 93.5,431 Z" fill="#d89000"></path>
</svg>
